<mxfile host="app.diagrams.net" agent="Mozilla/5.0 (Windows NT 10.0; Win64; x64) AppleWebKit/537.36 (KHTML, like Gecko) Chrome/134.0.0.0 Safari/537.36 Edg/134.0.0.0" version="26.1.1">
  <diagram name="Página-1" id="0P693HM2tiuo-ppZGyfe">
    <mxGraphModel dx="884" dy="390" grid="1" gridSize="10" guides="1" tooltips="1" connect="1" arrows="1" fold="1" page="1" pageScale="1" pageWidth="1169" pageHeight="827" math="0" shadow="0">
      <root>
        <mxCell id="0" />
        <mxCell id="1" parent="0" />
        <mxCell id="1-6hbj6Or50x3h_Qqw9L-15" style="rounded=0;orthogonalLoop=1;jettySize=auto;html=1;exitX=1;exitY=0.3333333333333333;exitDx=0;exitDy=0;exitPerimeter=0;entryX=0;entryY=0.5;entryDx=0;entryDy=0;" edge="1" parent="1" source="1-6hbj6Or50x3h_Qqw9L-1" target="1-6hbj6Or50x3h_Qqw9L-14">
          <mxGeometry relative="1" as="geometry" />
        </mxCell>
        <mxCell id="1-6hbj6Or50x3h_Qqw9L-16" style="rounded=0;orthogonalLoop=1;jettySize=auto;html=1;exitX=1;exitY=0.3333333333333333;exitDx=0;exitDy=0;exitPerimeter=0;entryX=0;entryY=0.5;entryDx=0;entryDy=0;" edge="1" parent="1" source="1-6hbj6Or50x3h_Qqw9L-1" target="1-6hbj6Or50x3h_Qqw9L-12">
          <mxGeometry relative="1" as="geometry" />
        </mxCell>
        <mxCell id="1-6hbj6Or50x3h_Qqw9L-17" style="rounded=0;orthogonalLoop=1;jettySize=auto;html=1;exitX=1;exitY=0.3333333333333333;exitDx=0;exitDy=0;exitPerimeter=0;entryX=0;entryY=0.5;entryDx=0;entryDy=0;" edge="1" parent="1" source="1-6hbj6Or50x3h_Qqw9L-1" target="1-6hbj6Or50x3h_Qqw9L-10">
          <mxGeometry relative="1" as="geometry" />
        </mxCell>
        <mxCell id="1-6hbj6Or50x3h_Qqw9L-18" style="rounded=0;orthogonalLoop=1;jettySize=auto;html=1;exitX=1;exitY=0.3333333333333333;exitDx=0;exitDy=0;exitPerimeter=0;entryX=0;entryY=0.5;entryDx=0;entryDy=0;" edge="1" parent="1" source="1-6hbj6Or50x3h_Qqw9L-1" target="1-6hbj6Or50x3h_Qqw9L-9">
          <mxGeometry relative="1" as="geometry" />
        </mxCell>
        <mxCell id="1-6hbj6Or50x3h_Qqw9L-1" value="Usuario" style="shape=umlActor;verticalLabelPosition=bottom;verticalAlign=top;html=1;outlineConnect=0;" vertex="1" parent="1">
          <mxGeometry x="430" y="200" width="30" height="60" as="geometry" />
        </mxCell>
        <mxCell id="1-6hbj6Or50x3h_Qqw9L-19" style="rounded=0;orthogonalLoop=1;jettySize=auto;html=1;exitX=1;exitY=0.3333333333333333;exitDx=0;exitDy=0;exitPerimeter=0;entryX=0;entryY=0.5;entryDx=0;entryDy=0;" edge="1" parent="1" source="1-6hbj6Or50x3h_Qqw9L-2" target="1-6hbj6Or50x3h_Qqw9L-13">
          <mxGeometry relative="1" as="geometry" />
        </mxCell>
        <mxCell id="1-6hbj6Or50x3h_Qqw9L-2" value="Bibliotecario" style="shape=umlActor;verticalLabelPosition=bottom;verticalAlign=top;html=1;outlineConnect=0;" vertex="1" parent="1">
          <mxGeometry x="430" y="383" width="30" height="60" as="geometry" />
        </mxCell>
        <mxCell id="1-6hbj6Or50x3h_Qqw9L-20" style="rounded=0;orthogonalLoop=1;jettySize=auto;html=1;exitX=0;exitY=0.3333333333333333;exitDx=0;exitDy=0;exitPerimeter=0;entryX=1;entryY=0.5;entryDx=0;entryDy=0;" edge="1" parent="1" source="1-6hbj6Or50x3h_Qqw9L-3" target="1-6hbj6Or50x3h_Qqw9L-11">
          <mxGeometry relative="1" as="geometry" />
        </mxCell>
        <mxCell id="1-6hbj6Or50x3h_Qqw9L-3" value="Administrador" style="shape=umlActor;verticalLabelPosition=bottom;verticalAlign=top;html=1;outlineConnect=0;" vertex="1" parent="1">
          <mxGeometry x="780" y="200" width="30" height="60" as="geometry" />
        </mxCell>
        <mxCell id="1-6hbj6Or50x3h_Qqw9L-9" value="Consultar historial de prestamos" style="ellipse;whiteSpace=wrap;html=1;" vertex="1" parent="1">
          <mxGeometry x="515" y="333" width="140" height="50" as="geometry" />
        </mxCell>
        <mxCell id="1-6hbj6Or50x3h_Qqw9L-10" value="Registrarse en el sistema" style="ellipse;whiteSpace=wrap;html=1;" vertex="1" parent="1">
          <mxGeometry x="525" y="270" width="120" height="40" as="geometry" />
        </mxCell>
        <mxCell id="1-6hbj6Or50x3h_Qqw9L-11" value="Gestionar inventario" style="ellipse;whiteSpace=wrap;html=1;" vertex="1" parent="1">
          <mxGeometry x="525" y="210" width="120" height="40" as="geometry" />
        </mxCell>
        <mxCell id="1-6hbj6Or50x3h_Qqw9L-12" value="Devolver libro" style="ellipse;whiteSpace=wrap;html=1;" vertex="1" parent="1">
          <mxGeometry x="525" y="150" width="120" height="40" as="geometry" />
        </mxCell>
        <mxCell id="1-6hbj6Or50x3h_Qqw9L-13" value="Regitrar prestamo" style="ellipse;whiteSpace=wrap;html=1;" vertex="1" parent="1">
          <mxGeometry x="525" y="403" width="120" height="40" as="geometry" />
        </mxCell>
        <mxCell id="1-6hbj6Or50x3h_Qqw9L-14" value="Buscar libro" style="ellipse;whiteSpace=wrap;html=1;" vertex="1" parent="1">
          <mxGeometry x="525" y="90" width="120" height="40" as="geometry" />
        </mxCell>
        <mxCell id="1-6hbj6Or50x3h_Qqw9L-21" value="&lt;p&gt;&lt;strong&gt;Actores:&lt;/strong&gt;&lt;/p&gt;&lt;ol start=&quot;1&quot;&gt;&lt;li&gt;&lt;p style=&quot;text-align: justify;&quot;&gt;&lt;strong&gt;Usuario&lt;/strong&gt;: cualquier persona que utiliza los servicios de la biblioteca.&lt;/p&gt;&lt;/li&gt;&lt;li&gt;&lt;p style=&quot;text-align: justify;&quot;&gt;&lt;strong&gt;Bibliotecario&lt;/strong&gt;: el personal encargado de gestionar el sistema.&lt;/p&gt;&lt;/li&gt;&lt;li&gt;&lt;p style=&quot;text-align: justify;&quot;&gt;&lt;strong&gt;Administrador&lt;/strong&gt;: el responsable de mantener el sistema.&lt;/p&gt;&lt;/li&gt;&lt;/ol&gt;&lt;p style=&quot;text-align: justify;&quot;&gt;&lt;strong&gt;Casos de uso principales:&lt;/strong&gt;&lt;/p&gt;&lt;ul&gt;&lt;li&gt;&lt;p style=&quot;text-align: justify;&quot;&gt;&lt;strong&gt;Buscar libros&lt;/strong&gt; (Usuario): el usuario consulta el catálogo de la biblioteca para encontrar libros.&lt;/p&gt;&lt;/li&gt;&lt;li&gt;&lt;p style=&quot;text-align: justify;&quot;&gt;&lt;strong&gt;Registrar préstamo&lt;/strong&gt; (Bibliotecario): el bibliotecario registra el préstamo de un libro al usuario.&lt;/p&gt;&lt;/li&gt;&lt;li&gt;&lt;p style=&quot;text-align: justify;&quot;&gt;&lt;strong&gt;Devolver libros&lt;/strong&gt; (Usuario): el usuario entrega el libro al bibliotecario para registrar la devolución.&lt;/p&gt;&lt;/li&gt;&lt;li&gt;&lt;p style=&quot;text-align: justify;&quot;&gt;&lt;strong&gt;Gestionar inventario&lt;/strong&gt; (Administrador): el administrador realiza actualizaciones en el catálogo, como agregar nuevos libros o eliminar libros obsoletos.&lt;/p&gt;&lt;/li&gt;&lt;li&gt;&lt;p style=&quot;text-align: justify;&quot;&gt;&lt;strong&gt;Registrarse en el sistema&lt;/strong&gt; (Usuario): el usuario crea una cuenta para acceder a los servicios.&lt;/p&gt;&lt;/li&gt;&lt;li&gt;&lt;p style=&quot;text-align: justify;&quot;&gt;&lt;strong&gt;Consultar historial de préstamos&lt;/strong&gt; (Usuario): el usuario revisa los libros que ha tomado prestados anteriormente.&lt;/p&gt;&lt;/li&gt;&lt;/ul&gt;" style="text;html=1;align=center;verticalAlign=middle;whiteSpace=wrap;rounded=0;" vertex="1" parent="1">
          <mxGeometry x="10" y="40" width="390" height="390" as="geometry" />
        </mxCell>
      </root>
    </mxGraphModel>
  </diagram>
</mxfile>
